<?xml version="1.0"?>
<svg xmlns="http://www.w3.org/2000/svg" id="Layer_1" data-name="Layer 1" stroke="#5c9a1c" fill="#5c9a1c" viewBox="0 0 512 512" width="512" height="512"><title>Group 2</title><path d="M196.765,430.462H187.4a7,7,0,0,0,0,14h9.367a7,7,0,0,0,0-14Z"/><path d="M16,475.8H316a7,7,0,0,0,7-7V447.678H496a7,7,0,0,0,7-7v-38.11a43.959,43.959,0,0,0-1.092-10.11c-.137-.593-.288-1.182-.447-1.759a46.519,46.519,0,0,0-30.838-31.777l-51.05-16.551V320.862a77.692,77.692,0,0,0,35.568-51.455l2.78-9.564a26.106,26.106,0,0,0,16.357-30.71,21.131,21.131,0,0,0-12.547-14.663V181.263a82.9,82.9,0,1,0-165.8,0v33.195a21.13,21.13,0,0,0-12.579,14.673A26.109,26.109,0,0,0,299.7,259.843l2.78,9.564a77.692,77.692,0,0,0,35.568,51.455v21.509L287,358.922c-.574.187-1.146.394-1.715.6l-51.871-17.58,8.478-10.406,19.428,17.56a7,7,0,0,0,5.545,1.754l22.938-2.812a7,7,0,0,0,6-8.362L272.921,228.7a29.29,29.29,0,0,0,12.685-31.645,23.521,23.521,0,0,0-14.773-16.633l.14-38.506a105.068,105.068,0,1,0-210.135-.626l.1,33.57c0,.056,0,.112,0,.168l.123,5.433a23.521,23.521,0,0,0-14.67,16.6,29.3,29.3,0,0,0,15.422,33.193L32.794,339.292a7,7,0,0,0,5.093,8.6,189.73,189.73,0,0,0,23.733,3.728,7.012,7.012,0,0,0,5.8-2.15l15.251-16.1.608,11.378a7,7,0,0,0,.5,2.221l-38.19,12.944A53.85,53.85,0,0,0,9,410.933V468.8A7,7,0,0,0,16,475.8ZM124.776,347.85l34.13,34.038v26.6l-55.064-53.546Zm32.688-21.691h17.071a84.957,84.957,0,0,0,23.821-3.407V336.92L166,369.189,133.644,336.92V322.753A84.991,84.991,0,0,0,157.464,326.159Zm15.442,55.916,34.318-34.225,20.934,7.095-55.252,53.728ZM384.8,184.8c6.723,6.9,24.141,21.8,53.492,27.562-18.033-1.615-48.047-6.857-73.829-23.6Q375.173,187.182,384.8,184.8Zm-74.877-3.538a68.9,68.9,0,1,1,137.805,0v18.474c-23.36-3.052-38.856-12.65-47.309-19.571,12.751-4.469,23.721-10.185,32.785-17.137a7,7,0,0,0-8.519-11.11C387.4,180.513,320.542,177.5,319.869,177.462a7,7,0,0,0-7.351,6.673l-1.255,27.559a3.042,3.042,0,0,1-1.337,2.448Zm6.253,85.216c-.042-.223-.095-.444-.158-.661l-3.774-12.979a7,7,0,0,0-5.672-5.595A12.048,12.048,0,0,1,296.6,235.35a12.193,12.193,0,0,1,.345-2.889,7.129,7.129,0,0,1,4.464-5.092,17.174,17.174,0,0,0,23.841-15.037l.944-20.747h.2c4.337,0,10.4-.126,17.584-.617,44.983,38.14,108.308,36.176,111.019,36.067.043,0,.084-.009.126-.011a7.24,7.24,0,0,1,5.555,5.439,12.1,12.1,0,0,1-9.631,14.781,7,7,0,0,0-5.672,5.595L441.6,265.818c-.063.217-.116.438-.158.661a63.731,63.731,0,0,1-125.267,0Zm62.633,65.955a77.467,77.467,0,0,0,26.761-4.753v15.508a64.691,64.691,0,0,1-53.521,0V327.681A77.466,77.466,0,0,0,378.812,332.434Zm-34.441,22.6a78.669,78.669,0,0,0,68.883,0l53.051,17.2a32.559,32.559,0,0,1,21.658,22.174q.168.609.311,1.225a30.215,30.215,0,0,1,.726,6.929v31.11H323V410.933a53.844,53.844,0,0,0-20.525-42.31ZM309,410.933V461.8H172.906V428.2l70.144-68.209,38.875,13.175A39.859,39.859,0,0,1,309,410.933Zm-40.663-74.365-22.523-20.356a7,7,0,0,0-10.12.772l-16.428,20.165-6.91-2.342V317.32a95.712,95.712,0,0,0,28.735-21.889,105.331,105.331,0,0,0,22.833-41.046l16.639,80.684ZM199.923,134.435c7.654,15.069,20.718,27.889,37.044,36.667a112.044,112.044,0,0,1-48.985-25.828A131.807,131.807,0,0,0,199.923,134.435ZM165.906,50.2a91.069,91.069,0,0,1,91.067,91.647l-.083,22.731c-22.144-7.6-39.568-22.982-46.832-41.711a169.042,169.042,0,0,0,14.34-21.5,7,7,0,1,0-12.189-6.887c-34.547,61.148-84.34,63.929-108.269,65.265l-.352.02c-6.08.34-11.8,4.595-14.941,11.1a7.809,7.809,0,0,1-3.7,3.629,7.982,7.982,0,0,1-9.046-1.562l-.975-.976-.089-30.692A91.172,91.172,0,0,1,165.906,50.2ZM59.989,200.382a9.755,9.755,0,0,1,8.84-7.459,7,7,0,0,0,5.986-4.718,21.936,21.936,0,0,0,26.446-11.262c.966-2.005,2.451-3.166,3.108-3.2l.352-.02c15.257-.852,43.341-2.423,71.612-20.159a126.038,126.038,0,0,0,80.8,34.48,7,7,0,0,0,6.034,4.882,9.755,9.755,0,0,1,8.839,7.459,15.289,15.289,0,0,1-12.171,18.677,7,7,0,0,0-5.793,6.9v.133a90.547,90.547,0,0,1-23.335,59.951c-15.241,16.844-35.191,26.121-56.175,26.121H157.464c-20.985,0-40.935-9.277-56.175-26.121a90.547,90.547,0,0,1-23.335-59.951v-.133a7,7,0,0,0-5.793-6.9,15.223,15.223,0,0,1-12.608-15.03A15.414,15.414,0,0,1,59.989,200.382ZM99.721,337.645q-1.428-.055-2.81-.107l-1.134-21.187a7,7,0,0,0-12.072-4.439L59.644,337.317c-4.579-.536-8.427-1.124-11.4-1.637l20.793-78.133a105.272,105.272,0,0,0,21.871,37.884,95.723,95.723,0,0,0,28.737,21.89v17.486l-9.247,3.134C106.789,337.908,103.2,337.781,99.721,337.645ZM23,410.933a39.859,39.859,0,0,1,27.075-37.766L88.95,359.992l69.956,68.027V461.8H23Z"/></svg>
