<?xml version="1.0" encoding="UTF-8"?>
<svg xmlns="http://www.w3.org/2000/svg" :id="'Layer-' + index" data-name="Layer 1" stroke="white" fill="white" viewBox="0 0 512 512" width="30" height="30"><path d="M369.414,350.884a17.069,17.069,0,1,0-17.069,17.05A17.078,17.078,0,0,0,369.414,350.884Zm-22.138,0a5.069,5.069,0,1,1,5.069,5.05A5.065,5.065,0,0,1,347.276,350.884Z"/><path d="M206,362.2a6,6,0,0,0-6,6v54.665a6,6,0,0,0,12,0V368.2A6,6,0,0,0,206,362.2Z"/><path d="M212,342.356a6,6,0,0,0-12,0v5.357a6,6,0,0,0,12,0Z"/><path d="M197.648,271.3A24.872,24.872,0,0,1,214,294.624v32.617a5.977,5.977,0,0,0,6,5.748V352a6,6,0,0,0,12,0V333h7v94.153c0,30.046,24.785,54.49,55,54.49s55-24.444,55-54.49v-42.7a29.438,29.438,0,0,0,3.471.192,32.115,32.115,0,0,0,3.529-.2v42.707a62,62,0,0,1-124,0V392a6,6,0,0,0-12,0v35.153a74,74,0,0,0,148,0V380.82a33.926,33.926,0,1,0-31,.029v46.3c0,23.429-19.4,42.49-43,42.49s-43-19.061-43-42.49V332.975a5.419,5.419,0,0,0,5-5.734V294.954c0-10.459,7.009-19.963,17.1-23.649a106.9,106.9,0,0,0,51.209-39.258A109.2,109.2,0,0,0,344,169.3V121.844A5.975,5.975,0,0,0,337.879,116H333V51.012a26.5,26.5,0,0,0-21.418-25.877,19.989,19.989,0,1,0-.248,12.356A14.442,14.442,0,0,1,321,51.012V116H307.658A5.586,5.586,0,0,0,302,121.844V168.2c0,36.769-29.694,67.131-65.983,67.682A66.913,66.913,0,0,1,168,169.3V121.844A5.91,5.91,0,0,0,161.952,116H151V51.012a14.341,14.341,0,0,1,9.562-13.525,19.937,19.937,0,1,0-.243-12.354A26.4,26.4,0,0,0,139,51.012V116h-7.269A5.645,5.645,0,0,0,126,121.844V169.3C126,214.515,154.643,255.505,197.648,271.3Zm132.773,79.583a21.925,21.925,0,1,1,21.924,21.761A21.867,21.867,0,0,1,330.421,350.884ZM292.364,38.92a7.96,7.96,0,1,1,8.042-7.96A8.011,8.011,0,0,1,292.364,38.92ZM179.417,23a7.96,7.96,0,1,1-8.042,7.96A8.01,8.01,0,0,1,179.417,23ZM314,128h18v37H314Zm-176,0h18v37H138Zm18.358,49a78.683,78.683,0,0,0,79.669,70.647c39.76-.6,72.615-31.647,77.092-70.647h18.442c-2.963,38-27,69.884-62.577,82.878C254.177,265.286,244,279.475,244,294.954V321H226V294.624a37.236,37.236,0,0,0-24.35-34.742A97.627,97.627,0,0,1,138.082,177Z"/></svg>
